<svg width="3500" height="3500" viewBox="0 0 3500 3500" fill="none" xmlns="http://www.w3.org/2000/svg">
<path d="M2311.53 1215.66L1089.07 1659L1208.21 1238.4L2410.64 798L2311.53 1215.66Z" fill="url(#paint0_linear_218_12)"/>
<path d="M1047.99 2214.86L1507.94 2040.4L2026.04 2384.04L1544.95 2543.6L1047.99 2214.86Z" fill="#D9D9D9"/>
<path d="M1169.55 1807.77L2026.01 2384.03L1544.92 2542.63L1047.96 2214.85L1169.55 1807.77Z" fill="url(#paint1_linear_218_12)"/>
<path d="M1666.51 2140.83L1047.96 2214.85L1169.55 1807.77L1666.51 2140.83Z" fill="#D6A91E"/>
<path d="M2105.31 1834.2L2232.2 1405.97L1169.55 1807.77L1047.96 2214.85L2105.31 1834.2Z" fill="url(#paint2_linear_218_12)"/>
<path d="M2163.47 1633.31L2232.2 1405.97L1169.55 1807.77L1143.12 1897.65L2163.47 1633.31Z" fill="url(#paint3_linear_218_12)"/>
<defs>
<linearGradient id="paint0_linear_218_12" x1="1095.57" y1="1543.44" x2="2422.56" y2="914.309" gradientUnits="userSpaceOnUse">
<stop stop-color="#2DB656"/>
<stop offset="1" stop-color="#74DC65"/>
</linearGradient>
<linearGradient id="paint1_linear_218_12" x1="1248.85" y1="2040.39" x2="1692.95" y2="2431.61" gradientUnits="userSpaceOnUse">
<stop offset="0.0652429" stop-color="#E3B525"/>
<stop offset="0.789675" stop-color="#FFC81B"/>
</linearGradient>
<linearGradient id="paint2_linear_218_12" x1="1640.08" y1="1564.58" x2="1835.69" y2="2035.1" gradientUnits="userSpaceOnUse">
<stop offset="0.167047" stop-color="#1D8D2B"/>
<stop offset="0.43085" stop-color="#2DA150"/>
<stop offset="0.807736" stop-color="#2BB857"/>
</linearGradient>
<linearGradient id="paint3_linear_218_12" x1="1640.08" y1="1564.58" x2="1835.69" y2="2035.1" gradientUnits="userSpaceOnUse">
<stop offset="0.0581062" stop-color="#218F2F"/>
</linearGradient>
</defs>
</svg>
