<svg width="30" height="22" viewBox="0 0 30 22" fill="none" xmlns="http://www.w3.org/2000/svg">
<path d="M29.4042 10.1383C26.2301 3.45187 21.4321 0.0869141 15.0002 0.0869141C8.56493 0.0869141 3.77028 3.45187 0.596176 10.1416C0.468861 10.4112 0.402832 10.7056 0.402832 11.0038C0.402832 11.3019 0.468861 11.5963 0.596176 11.8659C3.77028 18.5523 8.56827 21.9173 15.0002 21.9173C21.4355 21.9173 26.2301 18.5523 29.4042 11.8626C29.662 11.3202 29.662 10.6907 29.4042 10.1383ZM15.0002 19.5066C9.59952 19.5066 5.64528 16.7677 2.85622 11.0021C5.64528 5.23647 9.59952 2.49763 15.0002 2.49763C20.4009 2.49763 24.3551 5.23647 27.1442 11.0021C24.3585 16.7677 20.4042 19.5066 15.0002 19.5066ZM14.8663 5.10924C11.6118 5.10924 8.97341 7.74763 8.97341 11.0021C8.97341 14.2566 11.6118 16.895 14.8663 16.895C18.1207 16.895 20.7591 14.2566 20.7591 11.0021C20.7591 7.74763 18.1207 5.10924 14.8663 5.10924ZM14.8663 14.7521C12.7937 14.7521 11.1163 13.0746 11.1163 11.0021C11.1163 8.92955 12.7937 7.25209 14.8663 7.25209C16.9388 7.25209 18.6163 8.92955 18.6163 11.0021C18.6163 13.0746 16.9388 14.7521 14.8663 14.7521Z" fill="#45CE7C"/>
</svg>
