<svg width="22" height="24" viewBox="0 0 22 24" fill="none" xmlns="http://www.w3.org/2000/svg">
<path d="M21.0156 12.5806C21.4656 11.986 21.7147 11.2574 21.7147 10.4994C21.7147 9.29667 21.0424 8.15828 19.9602 7.52346C19.6817 7.36005 19.3645 7.27405 19.0415 7.27435H12.6183L12.779 3.98239C12.8165 3.18685 12.5352 2.43149 11.9888 1.8556C11.7206 1.57175 11.3971 1.3459 11.0382 1.19202C10.6793 1.03815 10.2927 0.959504 9.90221 0.960957C8.50935 0.960957 7.2772 1.89846 6.90756 3.24042L4.60667 11.5708H1.14328C0.669169 11.5708 0.286133 11.9538 0.286133 12.4279V22.1779C0.286133 22.652 0.669169 23.0351 1.14328 23.0351H17.2495C17.496 23.0351 17.737 22.9869 17.9593 22.8904C19.2343 22.3467 20.0567 21.1011 20.0567 19.719C20.0567 19.3815 20.0085 19.0494 19.912 18.7279C20.362 18.1333 20.6111 17.4047 20.6111 16.6467C20.6111 16.3092 20.5629 15.977 20.4665 15.6556C20.9165 15.061 21.1656 14.3324 21.1656 13.5744C21.1602 13.2369 21.112 12.902 21.0156 12.5806ZM2.2147 21.1065V13.4994H4.38435V21.1065H2.2147ZM19.2611 11.6511L18.6745 12.1601L19.0468 12.8404C19.1695 13.0645 19.2331 13.3162 19.2317 13.5717C19.2317 14.0136 19.0388 14.4342 18.7067 14.7235L18.1201 15.2324L18.4924 15.9127C18.615 16.1369 18.6786 16.3885 18.6772 16.644C18.6772 17.086 18.4843 17.5065 18.1522 17.7958L17.5656 18.3047L17.9379 18.9851C18.0606 19.2092 18.1242 19.4608 18.1227 19.7163C18.1227 20.3163 17.7692 20.8574 17.2227 21.1038H6.09863V13.4136L8.76381 3.75739C8.83254 3.50989 8.98006 3.29153 9.18404 3.13541C9.38801 2.97929 9.63731 2.89391 9.89417 2.89221C10.0977 2.89221 10.2986 2.95114 10.4593 3.07167C10.7245 3.26989 10.8665 3.56989 10.8504 3.88864L10.5933 9.20292H19.0147C19.4915 9.49489 19.7861 9.98774 19.7861 10.4994C19.7861 10.9413 19.5933 11.3592 19.2611 11.6511Z" fill="#45CE7C"/>
</svg>
