<svg width="20" height="22" viewBox="0 0 20 22" fill="none" xmlns="http://www.w3.org/2000/svg">
<path d="M16.4284 15.0714C15.665 15.0714 14.9605 15.3393 14.4087 15.7866L8.85872 11.7714C8.95165 11.2613 8.95165 10.7387 8.85872 10.2286L14.4087 6.21339C14.9605 6.66071 15.665 6.92857 16.4284 6.92857C18.2016 6.92857 19.6426 5.4875 19.6426 3.71429C19.6426 1.94107 18.2016 0.5 16.4284 0.5C14.6551 0.5 13.2141 1.94107 13.2141 3.71429C13.2141 4.025 13.2569 4.32232 13.34 4.60625L8.06854 8.42321C7.2864 7.38661 6.04354 6.71429 4.64265 6.71429C2.27479 6.71429 0.356934 8.63214 0.356934 11C0.356934 13.3679 2.27479 15.2857 4.64265 15.2857C6.04354 15.2857 7.2864 14.6134 8.06854 13.5768L13.34 17.3938C13.2569 17.6777 13.2141 17.9777 13.2141 18.2857C13.2141 20.0589 14.6551 21.5 16.4284 21.5C18.2016 21.5 19.6426 20.0589 19.6426 18.2857C19.6426 16.5125 18.2016 15.0714 16.4284 15.0714ZM16.4284 2.32143C17.1971 2.32143 17.8212 2.94554 17.8212 3.71429C17.8212 4.48304 17.1971 5.10714 16.4284 5.10714C15.6596 5.10714 15.0355 4.48304 15.0355 3.71429C15.0355 2.94554 15.6596 2.32143 16.4284 2.32143ZM4.64265 13.3571C3.34354 13.3571 2.28551 12.2991 2.28551 11C2.28551 9.70089 3.34354 8.64286 4.64265 8.64286C5.94176 8.64286 6.99979 9.70089 6.99979 11C6.99979 12.2991 5.94176 13.3571 4.64265 13.3571ZM16.4284 19.6786C15.6596 19.6786 15.0355 19.0545 15.0355 18.2857C15.0355 17.517 15.6596 16.8929 16.4284 16.8929C17.1971 16.8929 17.8212 17.517 17.8212 18.2857C17.8212 19.0545 17.1971 19.6786 16.4284 19.6786Z" fill="#45CE7C"/>
</svg>
